<?xml version="1.0" encoding="utf-8"?>
<!-- Generator: Adobe Illustrator 18.0.0, SVG Export Plug-In . SVG Version: 6.00 Build 0)  -->
<!DOCTYPE svg PUBLIC "-//W3C//DTD SVG 1.1//EN" "http://www.w3.org/Graphics/SVG/1.1/DTD/svg11.dtd">
<svg version="1.1" id="Layer_1" xmlns="http://www.w3.org/2000/svg" xmlns:xlink="http://www.w3.org/1999/xlink" x="0px" y="0px"
	 viewBox="0 0 252.821 78.506" enable-background="new 0 0 252.821 78.506" xml:space="preserve">
<g>
	<g>
		<path fill="#2E5BA1" d="M218.399,57.32c0-0.726,0.49-1.655,1.088-2.066l15.726-10.788c0.598-0.41,1.088-0.153,1.088,0.573v20.457
			c0,0.726-0.49,1.654-1.089,2.064l-15.724,10.751c-0.599,0.41-1.089,0.151-1.089-0.575V57.32z"/>
	</g>
	<g>
		<linearGradient id="SVGID_1_" gradientUnits="userSpaceOnUse" x1="208.6879" y1="38.3331" x2="215.491" y2="48.1964">
			<stop  offset="0" style="stop-color:#96979C"/>
			<stop  offset="0.2132" style="stop-color:#9F9FA4"/>
			<stop  offset="0.6816" style="stop-color:#AFAFB2"/>
			<stop  offset="1" style="stop-color:#B5B4B8"/>
		</linearGradient>
		<path fill="url(#SVGID_1_)" d="M232.676,43.372c0.598-0.411,0.513-0.897-0.189-1.08l-19.544-5.096
			c-0.702-0.183-1.766,0.003-2.364,0.415l-15.534,10.68c-0.598,0.411-0.513,0.9,0.188,1.086l19.422,5.163
			c0.701,0.186,1.764,0.003,2.362-0.408L232.676,43.372z"/>
	</g>
	<g>
		<path fill="#2E5BA1" d="M192.379,25.467c0-0.726,0.49-1.655,1.088-2.066l15.723-10.79c0.598-0.411,1.088-0.153,1.088,0.573v20.46
			c0,0.726-0.49,1.654-1.089,2.064l-15.72,10.749c-0.599,0.41-1.089,0.151-1.089-0.575V25.467z"/>
	</g>
	<g>
		<linearGradient id="SVGID_2_" gradientUnits="userSpaceOnUse" x1="183.5911" y1="7.4643" x2="188.3681" y2="14.7896">
			<stop  offset="0" style="stop-color:#96979C"/>
			<stop  offset="0.2132" style="stop-color:#9F9FA4"/>
			<stop  offset="0.6816" style="stop-color:#AFAFB2"/>
			<stop  offset="1" style="stop-color:#B5B4B8"/>
		</linearGradient>
		<path fill="url(#SVGID_2_)" d="M206.652,11.517c0.598-0.411,0.513-0.897-0.189-1.08L186.924,5.34
			c-0.702-0.183-1.766,0.003-2.364,0.414l-15.534,10.68c-0.598,0.411-0.513,0.9,0.188,1.087l19.417,5.165
			c0.701,0.187,1.764,0.003,2.362-0.408L206.652,11.517z"/>
	</g>
	<g>
		<path fill="#2E5BA1" d="M234.92,20.197c0-0.726,0.49-1.655,1.088-2.066l15.726-10.788c0.598-0.41,1.088-0.153,1.088,0.573v20.459
			c0,0.726-0.49,1.654-1.089,2.064l-15.723,10.747c-0.599,0.409-1.089,0.151-1.089-0.575V20.197z"/>
	</g>
	<g>
		<linearGradient id="SVGID_3_" gradientUnits="userSpaceOnUse" x1="226.5085" y1="1.3435" x2="231.8599" y2="11.5205">
			<stop  offset="0" style="stop-color:#96979C"/>
			<stop  offset="0.2132" style="stop-color:#9F9FA4"/>
			<stop  offset="0.6816" style="stop-color:#AFAFB2"/>
			<stop  offset="1" style="stop-color:#B5B4B8"/>
		</linearGradient>
		<path fill="url(#SVGID_3_)" d="M249.194,6.247c0.598-0.411,0.513-0.897-0.189-1.08L229.464,0.07
			c-0.702-0.183-1.766,0.003-2.364,0.415l-15.533,10.68c-0.598,0.411-0.513,0.9,0.188,1.087l19.419,5.164
			c0.701,0.186,1.764,0.003,2.362-0.408L249.194,6.247z"/>
	</g>
</g>
<g>
	<path fill="#2E5BA1" d="M21.697,31.345l-2.037-3.459H4.962l-2.037,3.459H0l10.883-18.867h2.857l10.91,18.867H21.697z
		 M12.304,15.144L6.425,25.316h11.771L12.304,15.144z"/>
	<path fill="#2E5BA1" d="M26.66,31.345V12.478h2.57v18.867H26.66z"/>
	<path fill="#2E5BA1" d="M50.23,24.263c0,0.164-0.007,0.354-0.021,0.567c-0.014,0.214-0.039,0.454-0.075,0.718H35.177
		c0.237,1.349,1.021,2.274,2.352,2.775c0.875,0.328,2.151,0.492,3.828,0.492c1.403,0,2.447-0.086,3.131-0.26
		c1.148-0.282,2.005-0.843,2.57-1.682l2.352,1.121c-1.304,2.233-3.988,3.35-8.053,3.35c-5.906,0-8.859-2.36-8.859-7.082
		c0-4.749,2.953-7.123,8.859-7.123C47.272,17.14,50.23,19.515,50.23,24.263z M47.55,22.978c-0.255-1.349-1.044-2.274-2.365-2.775
		c-0.866-0.328-2.142-0.492-3.828-0.492c-1.695,0-2.972,0.164-3.828,0.492c-1.322,0.474-2.105,1.399-2.352,2.775H47.55z"/>
	<path fill="#2E5BA1" d="M67.498,31.345v-1.408c-1.458,0.939-3.56,1.408-6.303,1.408c-5.906,0-8.859-2.36-8.859-7.082
		c0-4.749,2.953-7.123,8.859-7.123c2.743,0,4.844,0.483,6.303,1.449V17.14h2.57v14.205H67.498z M67.498,24.263
		c0-1.859-0.629-3.126-1.887-3.801c-0.884-0.501-2.356-0.752-4.416-0.752c-2.023,0-3.491,0.251-4.402,0.752
		c-1.258,0.684-1.887,1.951-1.887,3.801c0,1.851,0.629,3.117,1.887,3.801c0.911,0.501,2.379,0.752,4.402,0.752
		c2.032,0,3.504-0.25,4.416-0.752C66.869,27.381,67.498,26.114,67.498,24.263z"/>
	<path fill="#2E5BA1" d="M105.136,18.084c-0.784-1.258-2.023-2.114-3.719-2.57c-1.103-0.31-2.647-0.465-4.635-0.465
		c-2.944,0-5.108,0.406-6.494,1.217c-1.813,1.048-2.721,2.935-2.721,5.66c0,2.734,0.907,4.626,2.721,5.674
		c1.413,0.812,3.577,1.217,6.494,1.217c0.938,0,1.771-0.034,2.495-0.103s1.36-0.166,1.907-0.294c1.632-0.41,2.862-1.167,3.691-2.27
		v-2.939H96.66v-2.57h10.787v10.705h-2.57v-1.736c-1.95,1.158-4.648,1.736-8.094,1.736c-3.646,0-6.431-0.633-8.354-1.9
		c-2.288-1.549-3.432-4.056-3.432-7.52c0-3.473,1.144-5.983,3.432-7.533c1.933-1.276,4.717-1.914,8.354-1.914
		c5.423,0,8.982,1.495,10.678,4.484L105.136,18.084z"/>
	<path fill="#2E5BA1" d="M133.109,17.851c0,2.306-1.413,3.86-4.238,4.662c-1.604,0.465-3.965,0.697-7.082,0.697h-7.342v8.135h-2.57
		V12.478h9.939c3.099,0,5.45,0.232,7.055,0.697C131.696,13.978,133.109,15.536,133.109,17.851z M130.539,17.851
		c0-1.868-2.657-2.803-7.971-2.803h-8.121v5.592h8.326C127.95,20.64,130.539,19.711,130.539,17.851z"/>
	<path fill="#2E5BA1" d="M157.035,21.925c0,3.491-0.93,5.979-2.789,7.465c-1.649,1.304-4.261,1.955-7.834,1.955
		s-6.185-0.651-7.834-1.955c-1.859-1.485-2.789-3.974-2.789-7.465v-9.447h2.57v9.447c0,2.762,0.684,4.64,2.051,5.633
		c1.14,0.839,3.14,1.258,6.002,1.258s4.862-0.419,6.002-1.258c1.367-0.993,2.051-2.871,2.051-5.633v-9.447h2.57V21.925z"/>
</g>
<g>
	<path fill="#96979C" d="M11.341,69.196L0.951,51.232h1.873l9.652,16.707l9.666-16.707h1.873L13.625,69.196H11.341z"/>
	<path fill="#96979C" d="M27.816,63.372c0.264,1.759,1.135,2.958,2.611,3.596c0.957,0.401,2.324,0.602,4.102,0.602
		c0.665,0,1.253-0.021,1.764-0.062c0.51-0.041,0.957-0.098,1.34-0.171c1.203-0.264,2.124-0.793,2.762-1.586l1.518,0.725
		c-1.23,1.814-3.691,2.721-7.383,2.721c-2.644,0-4.64-0.451-5.988-1.354c-1.604-1.084-2.406-2.848-2.406-5.291
		c0-2.461,0.802-4.225,2.406-5.291c1.321-0.902,3.317-1.354,5.988-1.354c2.643,0,4.644,0.451,6.002,1.354
		c1.604,1.085,2.406,2.849,2.406,5.291c0,0.128-0.005,0.26-0.014,0.396c-0.009,0.137-0.023,0.278-0.041,0.424H27.816z
		 M34.529,57.534c-1.777,0-3.145,0.201-4.102,0.602c-1.477,0.638-2.347,1.837-2.611,3.596h13.439
		c-0.265-1.759-1.135-2.958-2.611-3.596C37.678,57.735,36.306,57.534,34.529,57.534z"/>
	<path fill="#96979C" d="M61.435,59.421c-0.593-0.802-1.509-1.344-2.748-1.627c-0.365-0.091-0.809-0.157-1.333-0.198
		c-0.524-0.041-1.128-0.062-1.812-0.062c-2.133,0-3.691,0.273-4.676,0.82c-1.395,0.757-2.092,2.156-2.092,4.197v6.645h-1.641V55.907
		h1.641v1.887c1.759-1.258,4.015-1.887,6.768-1.887c3.728,0,6.207,0.93,7.438,2.789L61.435,59.421z"/>
	<path fill="#96979C" d="M80.179,68.8c-0.556,0.128-1.312,0.226-2.27,0.294s-2.138,0.103-3.541,0.103
		c-4.001,0-6.417-0.697-7.246-2.092l1.6-0.725c0.51,0.511,1.463,0.861,2.857,1.053c0.82,0.109,1.905,0.164,3.254,0.164
		c1.823,0,3.14-0.055,3.951-0.164c2.087-0.282,3.131-0.938,3.131-1.969c0-1.012-1.062-1.663-3.186-1.955
		c-0.392-0.045-0.912-0.08-1.559-0.103c-0.647-0.022-1.44-0.034-2.379-0.034c-2.288,0-3.97-0.15-5.045-0.451
		c-2.005-0.528-3.008-1.622-3.008-3.281c0-1.613,1.012-2.702,3.035-3.268c1.103-0.31,2.894-0.465,5.373-0.465
		c0.966,0,1.8,0.021,2.502,0.062c0.701,0.041,1.289,0.098,1.764,0.171c1.786,0.273,2.999,0.861,3.637,1.764l-1.586,0.752
		c-0.538-0.474-1.495-0.802-2.871-0.984c-0.812-0.109-1.882-0.164-3.213-0.164c-1.796,0-3.104,0.055-3.924,0.164
		c-2.051,0.292-3.076,0.948-3.076,1.969c0,1.021,1.057,1.673,3.172,1.955c0.392,0.046,0.911,0.08,1.559,0.103
		c0.647,0.023,1.44,0.034,2.379,0.034c2.278,0,3.96,0.15,5.045,0.451c2.005,0.529,3.008,1.623,3.008,3.281
		C83.542,67.159,82.421,68.272,80.179,68.8z"/>
	<path fill="#96979C" d="M88.902,51.232h1.641v1.641h-1.641V51.232z M88.902,55.907h1.641v13.289h-1.641V55.907z"/>
	<path fill="#96979C" d="M103.134,69.196c-2.644,0-4.64-0.451-5.988-1.354c-1.604-1.066-2.406-2.83-2.406-5.291
		c0-2.461,0.802-4.225,2.406-5.291c1.321-0.902,3.317-1.354,5.988-1.354c2.644,0,4.644,0.451,6.002,1.354
		c1.604,1.066,2.406,2.83,2.406,5.291c0,2.461-0.802,4.225-2.406,5.291C107.778,68.745,105.778,69.196,103.134,69.196z
		 M103.134,57.534c-2.114,0-3.669,0.273-4.662,0.82c-1.403,0.748-2.105,2.146-2.105,4.197c0,2.051,0.702,3.45,2.105,4.197
		c0.993,0.547,2.548,0.82,4.662,0.82s3.673-0.273,4.676-0.82c1.395-0.747,2.092-2.146,2.092-4.197c0-2.042-0.697-3.44-2.092-4.197
		C106.807,57.808,105.249,57.534,103.134,57.534z"/>
	<path fill="#96979C" d="M130.916,62.552c0-2.051-0.702-3.45-2.105-4.197c-1.003-0.547-2.557-0.82-4.662-0.82
		c-2.124,0-3.683,0.273-4.676,0.82c-1.395,0.757-2.092,2.156-2.092,4.197v6.645h-1.641V55.907h1.641v1.887
		c1.786-1.258,4.042-1.887,6.768-1.887c2.634,0,4.63,0.451,5.988,1.354c1.604,1.085,2.406,2.849,2.406,5.291v6.645h-1.627V62.552z"
		/>
	<path fill="#96979C" d="M155.416,68.636c-0.774,0.183-1.772,0.321-2.994,0.417s-2.68,0.144-4.375,0.144
		c-1.294,0-2.44-0.036-3.438-0.109c-0.998-0.073-1.866-0.182-2.604-0.328c-2.452-0.501-3.97-1.472-4.553-2.912l1.627-0.424
		c0.911,1.431,3.587,2.146,8.025,2.146h2.707c0.938,0,1.818-0.043,2.639-0.13c0.82-0.086,1.591-0.216,2.311-0.39
		c2.261-0.538,3.391-1.454,3.391-2.748c0-1.303-1.244-2.229-3.732-2.775c-1.495-0.328-3.254-0.492-5.277-0.492h-3.828v-1.627h3.828
		c2.196,0,3.905-0.127,5.127-0.383c2.589-0.483,3.883-1.444,3.883-2.885c0-1.559-1.449-2.557-4.348-2.994
		c-0.602-0.091-1.379-0.159-2.331-0.205c-0.952-0.045-2.104-0.068-3.452-0.068c-1.048,0-1.971,0.021-2.769,0.062
		s-1.483,0.107-2.058,0.198c-2.142,0.319-3.505,0.939-4.088,1.859l-1.654-0.424c0.583-1.413,2.101-2.374,4.553-2.885
		c1.403-0.301,3.555-0.451,6.453-0.451c3.235,0,5.619,0.205,7.15,0.615c2.78,0.711,4.17,2.142,4.17,4.293
		c0,1.021-0.36,1.851-1.08,2.488c-0.711,0.629-1.882,1.158-3.514,1.586c1.632,0.438,2.803,0.971,3.514,1.6
		c0.72,0.629,1.08,1.458,1.08,2.488C159.777,66.481,158.323,67.925,155.416,68.636z"/>
</g>
<g>
</g>
<g>
</g>
<g>
</g>
<g>
</g>
<g>
</g>
<g>
</g>
</svg>
