<?xml version="1.0" encoding="utf-8"?>
<!-- Generator: Adobe Illustrator 18.0.0, SVG Export Plug-In . SVG Version: 6.00 Build 0)  -->
<!DOCTYPE svg PUBLIC "-//W3C//DTD SVG 1.1//EN" "http://www.w3.org/Graphics/SVG/1.1/DTD/svg11.dtd">
<svg version="1.1" id="Ebene_1" xmlns="http://www.w3.org/2000/svg" xmlns:xlink="http://www.w3.org/1999/xlink" x="0px" y="0px"
	 viewBox="290 263.1 329.9 47.9" enable-background="new 290 263.1 329.9 47.9" xml:space="preserve">
<g>
	<path fill="#005C87" d="M345.1,311l-5.2-8.8h-37.3l-5.2,8.8H290l27.6-47.9h7.3l27.7,47.9H345.1z M321.3,269.9l-14.9,25.8h29.9
		L321.3,269.9z"/>
	<path fill="#005C87" d="M357.7,311v-47.9h6.5V311H357.7z"/>
	<path fill="#005C87" d="M417.6,293c0,0.4,0,0.9-0.1,1.4s-0.1,1.2-0.2,1.8h-38c0.6,3.4,2.6,5.8,6,7c2.2,0.8,5.5,1.3,9.7,1.3
		c3.6,0,6.2-0.2,8-0.7c2.9-0.7,5.1-2.1,6.5-4.3l6,2.8c-3.3,5.7-10.1,8.5-20.5,8.5c-15,0-22.5-6-22.5-18c0-12.1,7.5-18.1,22.5-18.1
		C410.1,274.9,417.6,281,417.6,293z M410.8,289.8c-0.6-3.4-2.7-5.8-6-7c-2.2-0.8-5.4-1.3-9.7-1.3c-4.3,0-7.5,0.4-9.7,1.3
		c-3.4,1.2-5.3,3.6-6,7H410.8z"/>
	<path fill="#005C87" d="M461.5,311v-3.6c-3.7,2.4-9,3.6-16,3.6c-15,0-22.5-6-22.5-18c0-12.1,7.5-18.1,22.5-18.1
		c7,0,12.3,1.2,16,3.7v-3.7h6.5V311H461.5z M461.5,293c0-4.7-1.6-7.9-4.8-9.7c-2.2-1.3-6-1.9-11.2-1.9c-5.1,0-8.9,0.6-11.2,1.9
		c-3.2,1.7-4.8,5-4.8,9.7s1.6,7.9,4.8,9.7c2.3,1.3,6,1.9,11.2,1.9c5.2,0,8.9-0.6,11.2-1.9C459.9,301,461.5,297.7,461.5,293z"/>
	<path fill="#005C87" d="M534.7,269.6V311h-6.5v-41.4h-23.7v-6.5h53.9v6.5H534.7z"/>
	<path fill="#005C87" d="M606.9,311l-35.2-20.2V311h-6.5v-47.9h6.5v20.3l35.2-20.3h13l-41.6,24l41.6,23.9H606.9z"/>
</g>
</svg>
