<?xml version="1.0" encoding="utf-8"?>
<!-- Generator: Adobe Illustrator 18.0.0, SVG Export Plug-In . SVG Version: 6.00 Build 0)  -->
<!DOCTYPE svg PUBLIC "-//W3C//DTD SVG 1.1//EN" "http://www.w3.org/Graphics/SVG/1.1/DTD/svg11.dtd">
<svg version="1.1" id="Ebene_1" xmlns="http://www.w3.org/2000/svg" xmlns:xlink="http://www.w3.org/1999/xlink" x="0px" y="0px"
	 viewBox="0 0 300.265 238.682" enable-background="new 0 0 300.265 238.682" xml:space="preserve">
<path id="path21" fill="#77B82A" d="M72.14,70.902c0,0,22.504-33.203,67.437-36.638V22.218C89.808,26.215,46.71,68.367,46.71,68.367
	s24.41,70.565,92.867,77.026v-12.804C89.34,126.269,72.14,70.902,72.14,70.902z M139.577,107.125v11.726
	c-37.968-6.769-48.507-46.237-48.507-46.237s18.23-20.195,48.507-23.47v12.867c-0.023,0-0.039-0.007-0.058-0.007
	c-15.891-1.907-28.305,12.938-28.305,12.938S118.172,99.933,139.577,107.125 M139.577,0v22.218c1.461-0.112,2.922-0.207,4.391-0.257
	c56.582-1.907,93.449,46.406,93.449,46.406s-42.343,51.488-86.457,51.488c-4.043,0-7.828-0.375-11.383-1.005v13.739
	c3.04,0.386,6.192,0.613,9.481,0.613c41.051,0,70.738-20.965,99.484-45.778c4.766,3.817,24.278,13.103,28.289,17.168
	c-27.332,22.883-91.031,41.329-127.144,41.329c-3.481,0-6.824-0.211-10.11-0.528v19.306h156.032V0H139.577z M139.577,49.144V34.265
	c1.446-0.101,2.903-0.179,4.391-0.226c40.688-1.278,67.382,34.965,67.382,34.965s-28.832,40.043-59.746,40.043
	c-4.449,0-8.438-0.715-12.028-1.922V62.011c15.84,1.914,19.028,8.911,28.551,24.786l21.18-17.859c0,0-15.461-20.277-41.524-20.277
	C144.95,48.66,142.239,48.859,139.577,49.144"/>
<g>
	<path d="M38.613,214.483c-2.715,4.883-8.506,7.324-17.373,7.324c-12.656,0-18.984-5.059-18.984-15.176
		c0-10.176,6.328-15.264,18.984-15.264c8.848,0,14.638,2.49,17.373,7.471l-5.068,2.344c-1.172-1.836-3.008-3.066-5.508-3.691
		c-1.563-0.41-3.828-0.615-6.797-0.615c-4.395,0-7.54,0.537-9.434,1.611c-2.695,1.445-4.043,4.16-4.043,8.145
		c0,3.965,1.348,6.68,4.043,8.145c1.953,1.074,5.098,1.611,9.434,1.611c2.969,0,5.234-0.205,6.797-0.615
		c2.5-0.586,4.336-1.797,5.508-3.633L38.613,214.483z"/>
	<path d="M76.758,221.807v-3.076c-3.204,2.051-7.705,3.076-13.506,3.076c-12.676,0-19.014-5.059-19.014-15.176v-15.264h5.508v15.264
		c0,3.965,1.348,6.68,4.043,8.145c1.953,1.074,5.107,1.611,9.463,1.611c4.414,0,7.568-0.537,9.463-1.611
		c2.695-1.426,4.043-4.141,4.043-8.145v-15.264h5.508v30.439H76.758z"/>
	<path d="M137.256,210.382c0,4.902-2.999,8.232-8.994,9.99c-3.457,0.957-8.457,1.436-15,1.436H91.758v-40.43h21.357
		c6.621,0,11.65,0.498,15.088,1.494c6.035,1.738,9.053,5.078,9.053,10.02c0,4.375-2.334,7.285-7.002,8.73
		C134.922,203.087,137.256,206.007,137.256,210.382z M131.748,192.891c0-4.004-5.908-6.006-17.725-6.006H97.266v11.982H115.4
		C126.299,198.868,131.748,196.876,131.748,192.891z M131.748,210.382c0-4.004-5.928-6.006-17.783-6.006H97.266v12.012H115.4
		C126.299,216.387,131.748,214.385,131.748,210.382z"/>
	<path d="M146.748,221.807v-40.43h5.508v35.01h35.01v5.42H146.748z"/>
	<path d="M234.375,221.807l-4.365-7.412h-31.494l-4.365,7.412h-6.27l23.32-40.43h6.123l23.379,40.43H234.375z M214.248,187.091
		l-12.598,21.797h25.225L214.248,187.091z"/>
	<path d="M295.519,210.382c0,5.059-3.184,8.438-9.552,10.137c-3.438,0.859-8.672,1.289-15.703,1.289
		c-6.367,0-11.113-0.312-14.238-0.938c-5.879-1.25-9.434-3.828-10.664-7.734l5.361-1.494c1.055,2.227,4.287,3.672,9.697,4.336
		c1.172,0.156,2.715,0.273,4.629,0.352s4.248,0.117,7.002,0.117c11.973,0,17.96-2.021,17.96-6.064c0-2.871-2.979-4.717-8.937-5.537
		c-1.113-0.156-2.676-0.273-4.688-0.352s-4.521-0.117-7.529-0.117c-6.406,0-11.367-0.518-14.883-1.553
		c-5.977-1.758-8.965-5.068-8.965-9.932c0-5.078,3.184-8.467,9.551-10.166c3.34-0.898,8.574-1.348,15.703-1.348
		c6.406,0,11.191,0.352,14.355,1.055c5.938,1.328,9.474,3.994,10.606,7.998l-5.361,1.348c-0.977-2.305-4.142-3.799-9.493-4.482
		c-1.133-0.156-2.676-0.273-4.629-0.352s-4.346-0.117-7.178-0.117c-12.031,0-18.047,2.021-18.047,6.064
		c0,2.832,2.9,4.658,8.701,5.479c1.133,0.156,2.686,0.278,4.658,0.366s4.404,0.132,7.295,0.132c6.719,0,11.787,0.508,15.205,1.523
		C292.472,202.13,295.519,205.46,295.519,210.382z"/>
</g>
<g>
</g>
<g>
</g>
<g>
</g>
<g>
</g>
<g>
</g>
<g>
</g>
</svg>
