<?xml version="1.0" encoding="utf-8"?>
<!-- Generator: Adobe Illustrator 18.0.0, SVG Export Plug-In . SVG Version: 6.00 Build 0)  -->
<!DOCTYPE svg PUBLIC "-//W3C//DTD SVG 1.1//EN" "http://www.w3.org/Graphics/SVG/1.1/DTD/svg11.dtd">
<svg version="1.1" id="Ebene_1" xmlns="http://www.w3.org/2000/svg" xmlns:xlink="http://www.w3.org/1999/xlink" x="0px" y="0px"
	 viewBox="0 0 300.265 238.682" enable-background="new 0 0 300.265 238.682" xml:space="preserve">
<path id="path21" fill="#77B82A" d="M72.14,70.902c0,0,22.504-33.203,67.437-36.638V22.218C89.808,26.215,46.71,68.367,46.71,68.367
	s24.41,70.565,92.867,77.026v-12.804C89.34,126.269,72.14,70.902,72.14,70.902z M139.577,107.125v11.726
	c-37.968-6.769-48.507-46.237-48.507-46.237s18.23-20.195,48.507-23.47v12.867c-0.023,0-0.039-0.007-0.058-0.007
	c-15.891-1.907-28.305,12.938-28.305,12.938S118.172,99.933,139.577,107.125 M139.577,0v22.218c1.461-0.112,2.922-0.207,4.391-0.257
	c56.582-1.907,93.449,46.406,93.449,46.406s-42.343,51.488-86.457,51.488c-4.043,0-7.828-0.375-11.383-1.005v13.739
	c3.04,0.386,6.192,0.613,9.481,0.613c41.051,0,70.738-20.965,99.484-45.778c4.766,3.817,24.278,13.103,28.289,17.168
	c-27.332,22.883-91.031,41.329-127.144,41.329c-3.481,0-6.824-0.211-10.11-0.528v19.306h156.032V0H139.577z M139.577,49.144V34.265
	c1.446-0.101,2.903-0.179,4.391-0.226c40.688-1.278,67.382,34.965,67.382,34.965s-28.832,40.043-59.746,40.043
	c-4.449,0-8.438-0.715-12.028-1.922V62.011c15.84,1.914,19.028,8.911,28.551,24.786l21.18-17.859c0,0-15.461-20.277-41.524-20.277
	C144.95,48.66,142.239,48.859,139.577,49.144"/>
<g>
	<path d="M88.613,214.483c-2.715,4.883-8.506,7.324-17.373,7.324c-12.656,0-18.984-5.059-18.984-15.176
		c0-10.176,6.328-15.264,18.984-15.264c8.848,0,14.638,2.49,17.373,7.471l-5.068,2.344c-1.172-1.836-3.008-3.066-5.508-3.691
		c-1.563-0.41-3.828-0.615-6.797-0.615c-4.395,0-7.54,0.537-9.434,1.611c-2.695,1.445-4.043,4.16-4.043,8.145
		c0,3.965,1.348,6.68,4.043,8.145c1.953,1.074,5.098,1.611,9.434,1.611c2.969,0,5.234-0.205,6.797-0.615
		c2.5-0.586,4.336-1.797,5.508-3.633L88.613,214.483z"/>
	<path d="M126.758,221.807v-3.076c-3.204,2.051-7.705,3.076-13.506,3.076c-12.676,0-19.014-5.059-19.014-15.176v-15.264h5.508
		v15.264c0,3.965,1.348,6.68,4.043,8.145c1.953,1.074,5.107,1.611,9.463,1.611c4.414,0,7.568-0.537,9.463-1.611
		c2.695-1.426,4.043-4.141,4.043-8.145v-15.264h5.508v30.439H126.758z"/>
	<path d="M187.256,201.622c0,7.422-2.451,12.793-7.354,16.113c-4.121,2.715-10.088,4.072-17.9,4.072h-20.244v-40.43h20.244
		c7.871,0,13.838,1.387,17.9,4.16C184.805,188.858,187.256,194.219,187.256,201.622z M181.748,201.622
		c0-5.84-1.943-9.883-5.83-12.129c-2.969-1.738-7.607-2.607-13.916-2.607h-14.736v29.502h14.736c6.309,0,10.947-0.869,13.916-2.607
		C179.805,211.534,181.748,207.481,181.748,201.622z"/>
	<path d="M234.424,221.807l-34.658-32.578v32.578h-5.508v-40.43h5.361l34.629,32.666v-32.666h5.508v40.43H234.424z"/>
	<path d="M289.414,221.807l-34.658-32.578v32.578h-5.508v-40.43h5.361l34.629,32.666v-32.666h5.508v40.43H289.414z"/>
</g>
<g>
</g>
<g>
</g>
<g>
</g>
<g>
</g>
<g>
</g>
<g>
</g>
</svg>
