<?xml version="1.0" encoding="utf-8"?>
<!-- Generator: Adobe Illustrator 18.0.0, SVG Export Plug-In . SVG Version: 6.00 Build 0)  -->
<!DOCTYPE svg PUBLIC "-//W3C//DTD SVG 1.1//EN" "http://www.w3.org/Graphics/SVG/1.1/DTD/svg11.dtd">
<svg version="1.1" id="Layer_1" xmlns="http://www.w3.org/2000/svg" xmlns:xlink="http://www.w3.org/1999/xlink" x="0px" y="0px"
	 viewBox="0 0 379.335 81.935" enable-background="new 0 0 379.335 81.935" xml:space="preserve">
<path fill="#96979C" d="M37.745,79.758l-2.176,2.177l-5.071-4.993c-2.748,0.631-5.847,0.948-9.295,0.948
	c-6.676,0-11.72-1.144-15.134-3.431C2.023,71.743,0,67.279,0,61.065c0-6.23,2.023-10.703,6.069-13.417
	c3.397-2.27,8.442-3.406,15.134-3.406c6.641,0,11.677,1.152,15.108,3.457c4.047,2.715,6.069,7.17,6.069,13.366
	c0,7.034-2.868,11.959-8.604,14.775L37.745,79.758z M21.203,47.315c-5.702,0-9.918,0.803-12.65,2.407
	c-3.671,2.134-5.506,5.915-5.506,11.343c0,5.43,1.835,9.219,5.506,11.369c2.782,1.606,6.999,2.407,12.65,2.407
	c1.041,0,2.125-0.038,3.252-0.115c1.127-0.077,2.313-0.183,3.559-0.32l-5.889-5.865l2.176-2.175l7.119,7.119
	c5.275-1.964,7.913-6.103,7.913-12.42c0-5.411-1.836-9.192-5.506-11.343C31.095,48.117,26.887,47.315,21.203,47.315z"/>
<path fill="#96979C" d="M77.039,74.354c-3.329,2.357-7.554,3.534-12.675,3.534c-4.968,0-8.715-0.844-11.242-2.535
	c-2.987-2.014-4.481-5.318-4.481-9.91V52.999h3.047v12.444c0,3.841,1.315,6.463,3.944,7.862c1.86,1.024,4.771,1.536,8.732,1.536
	c3.943,0,6.854-0.511,8.732-1.536c2.628-1.399,3.943-4.021,3.943-7.862V52.999h3.047v24.89h-3.047V74.354z"/>
<path fill="#96979C" d="M115.848,74.354c-3.312,2.357-7.538,3.534-12.675,3.534c-4.951,0-8.69-0.844-11.216-2.535
	c-3.005-1.997-4.507-5.3-4.507-9.91c0-4.575,1.502-7.877,4.507-9.909c2.526-1.69,6.265-2.535,11.216-2.535
	c5.137,0,9.363,1.178,12.675,3.534v-3.534h3.073v24.89h-3.073V74.354z M103.173,56.046c-3.961,0-6.872,0.512-8.733,1.537
	c-2.629,1.4-3.943,4.02-3.943,7.861c0,3.841,1.314,6.463,3.943,7.862c1.86,1.024,4.772,1.536,8.733,1.536
	c3.96,0,6.879-0.511,8.757-1.536c2.612-1.399,3.917-4.021,3.917-7.862c0-3.824-1.306-6.444-3.917-7.861
	C110.051,56.559,107.133,56.046,103.173,56.046z"/>
<path fill="#96979C" d="M156.857,65.444c0-3.841-1.314-6.461-3.943-7.861c-1.878-1.024-4.788-1.537-8.732-1.537
	c-3.978,0-6.897,0.512-8.758,1.537c-2.612,1.417-3.918,4.037-3.918,7.861v12.445h-3.072v-24.89h3.072v3.534
	c3.346-2.355,7.571-3.534,12.676-3.534c4.933,0,8.672,0.845,11.216,2.535c3.003,2.032,4.505,5.334,4.505,9.909v12.445h-3.046V65.444
	z"/>
<path fill="#96979C" d="M175.741,77.889h-3.073V56.046h-8.731v-3.047h8.731v-8.757h3.073v8.757h8.733v3.047h-8.733V77.889z"/>
<path fill="#2E5BA1" d="M224.866,78.708l-3.816-6.479h-27.527l-3.816,6.479h-5.48l20.383-35.337h5.352l20.435,35.337H224.866z
	 M207.274,48.365l-11.011,19.051h22.047L207.274,48.365z"/>
<path fill="#2E5BA1" d="M233.112,78.708V43.371h4.814v35.337H233.112z"/>
<path fill="#2E5BA1" d="M277.258,65.444c0,0.308-0.013,0.661-0.038,1.063c-0.025,0.401-0.073,0.849-0.14,1.344h-28.015
	c0.445,2.527,1.912,4.261,4.405,5.198c1.637,0.615,4.027,0.923,7.169,0.923c2.63,0,4.584-0.163,5.864-0.486
	c2.15-0.53,3.756-1.579,4.814-3.15l4.405,2.099c-2.442,4.184-7.47,6.274-15.083,6.274c-11.061,0-16.593-4.42-16.593-13.265
	c0-8.893,5.531-13.34,16.593-13.34C271.718,52.103,277.258,56.55,277.258,65.444z M272.239,63.037
	c-0.478-2.527-1.955-4.259-4.43-5.197c-1.622-0.615-4.012-0.922-7.17-0.922c-3.175,0-5.565,0.307-7.169,0.922
	c-2.477,0.888-3.944,2.619-4.405,5.197H272.239z"/>
<path fill="#2E5BA1" d="M309.6,78.708V76.07c-2.732,1.759-6.667,2.638-11.806,2.638c-11.061,0-16.592-4.42-16.592-13.265
	c0-8.893,5.531-13.34,16.592-13.34c5.138,0,9.074,0.905,11.806,2.714v-2.714h4.814v26.605H309.6z M309.6,65.444
	c0-3.483-1.178-5.854-3.534-7.118c-1.656-0.939-4.412-1.408-8.271-1.408c-3.789,0-6.537,0.47-8.245,1.408
	c-2.357,1.28-3.534,3.653-3.534,7.118c0,3.466,1.177,5.838,3.534,7.119c1.707,0.939,4.455,1.409,8.245,1.409
	c3.807,0,6.564-0.47,8.271-1.409C308.423,71.282,309.6,68.91,309.6,65.444z"/>
<g>
	<g>
		<path fill="#2E5BA1" d="M344.913,57.32c0-0.726,0.49-1.655,1.088-2.066l15.726-10.788c0.598-0.41,1.088-0.153,1.088,0.573v20.457
			c0,0.726-0.49,1.654-1.089,2.064l-15.724,10.751c-0.599,0.41-1.089,0.151-1.089-0.575V57.32z"/>
	</g>
	<g>
		<linearGradient id="SVGID_1_" gradientUnits="userSpaceOnUse" x1="335.2016" y1="38.3331" x2="342.0047" y2="48.1964">
			<stop  offset="0" style="stop-color:#96979C"/>
			<stop  offset="0.2132" style="stop-color:#9F9FA4"/>
			<stop  offset="0.6816" style="stop-color:#AFAFB2"/>
			<stop  offset="1" style="stop-color:#B5B4B8"/>
		</linearGradient>
		<path fill="url(#SVGID_1_)" d="M359.19,43.372c0.598-0.411,0.513-0.897-0.189-1.08l-19.544-5.096
			c-0.702-0.183-1.766,0.003-2.364,0.415l-15.534,10.68c-0.598,0.411-0.513,0.9,0.188,1.086l19.422,5.163
			c0.701,0.186,1.764,0.003,2.362-0.408L359.19,43.372z"/>
	</g>
	<g>
		<path fill="#2E5BA1" d="M318.893,25.467c0-0.726,0.49-1.655,1.088-2.066l15.723-10.79c0.598-0.411,1.088-0.153,1.088,0.573v20.46
			c0,0.726-0.49,1.654-1.089,2.064l-15.72,10.749c-0.599,0.41-1.089,0.151-1.089-0.575V25.467z"/>
	</g>
	<g>
		<linearGradient id="SVGID_2_" gradientUnits="userSpaceOnUse" x1="310.1049" y1="7.4643" x2="314.8818" y2="14.7896">
			<stop  offset="0" style="stop-color:#96979C"/>
			<stop  offset="0.2132" style="stop-color:#9F9FA4"/>
			<stop  offset="0.6816" style="stop-color:#AFAFB2"/>
			<stop  offset="1" style="stop-color:#B5B4B8"/>
		</linearGradient>
		<path fill="url(#SVGID_2_)" d="M333.166,11.517c0.598-0.411,0.513-0.897-0.189-1.08L313.437,5.34
			c-0.702-0.183-1.766,0.003-2.364,0.414l-15.534,10.68c-0.598,0.411-0.513,0.9,0.188,1.087l19.417,5.165
			c0.701,0.187,1.764,0.003,2.362-0.408L333.166,11.517z"/>
	</g>
	<g>
		<path fill="#2E5BA1" d="M361.433,20.197c0-0.726,0.49-1.655,1.088-2.066l15.726-10.788c0.598-0.41,1.088-0.153,1.088,0.573v20.459
			c0,0.726-0.49,1.654-1.089,2.064l-15.723,10.747c-0.599,0.409-1.089,0.151-1.089-0.575V20.197z"/>
	</g>
	<g>
		<linearGradient id="SVGID_3_" gradientUnits="userSpaceOnUse" x1="353.0222" y1="1.3435" x2="358.3736" y2="11.5205">
			<stop  offset="0" style="stop-color:#96979C"/>
			<stop  offset="0.2132" style="stop-color:#9F9FA4"/>
			<stop  offset="0.6816" style="stop-color:#AFAFB2"/>
			<stop  offset="1" style="stop-color:#B5B4B8"/>
		</linearGradient>
		<path fill="url(#SVGID_3_)" d="M375.708,6.247c0.598-0.411,0.513-0.897-0.189-1.08L355.978,0.07
			c-0.702-0.183-1.766,0.003-2.364,0.415l-15.533,10.68c-0.598,0.411-0.513,0.9,0.188,1.087l19.419,5.164
			c0.701,0.186,1.764,0.003,2.362-0.408L375.708,6.247z"/>
	</g>
</g>
</svg>
